<?xml version="1.0" encoding="utf-8"?>
<!-- Generator: Adobe Illustrator 23.0.4, SVG Export Plug-In . SVG Version: 6.00 Build 0)  -->
<svg version="1.1" id="Layer_1" xmlns="http://www.w3.org/2000/svg" xmlns:xlink="http://www.w3.org/1999/xlink" x="0px" y="0px"
	 viewBox="0 0 1000 632" style="enable-background:new 0 0 1000 632;" xml:space="preserve">
<style type="text/css">
	.st0{fill:#7D7773;}
</style>
<path class="st0" d="M984.3,318.9c-4-87.6-9.4-175.1-16-262.6c2.1-0.5,4.3-0.9,6.4-1.4c3.6-0.9,5.9-6.3,3.7-9.8
	c-3.2-4.9-7.2-8.4-11.7-11.1c-0.1-1.9-0.3-3.7-0.4-5.6c-0.6-7.4-9.8-8.4-11.8-2.9c-2.1-1.1-4.6-1-6.4,1.4c-0.1,0.2-0.3,0.4-0.4,0.6
	c-10.9-1.8-22.5-1.8-32.5-2.9c-42.2-4.5-84.5-7.5-126.9-7.7c-44.7-0.2-87.8,4.4-130.8,11.4c-10.4-0.4-20.8-0.8-31.1-1.1
	c-42-5.9-84-10.4-126.1-10.4c-33.8,0-67.4,3.4-100.9,7.5c-51.9-0.2-103.8-0.4-155.7-0.1c-63.9,0.3-128.7,1.7-190.4,20.5
	c-4.9-0.6-9.8-1.1-14.7-1.8c-1.4-0.2-2.5,0.1-3.3,0.7c-2.4-1.2-4.7-2.4-7.1-3.6c-1-0.5-1.9-0.7-2.9-0.7c-0.2-0.5-0.5-0.9-0.8-1.3
	c-3.9-7.5-14.4-0.8-10.6,6.7c2.8,5.5,6,10.6,9.3,15.3c0,0.1,0,0.1,0,0.2c0,0.3-0.2,0.5-0.2,0.8c0.9,167.8,1.9,335.7,2.8,503.5
	c-0.3,1.8-0.5,3.5-0.8,5.3c-6,0.8-11.8,4.2-17.1,10.1c-3.6,4.1-1.1,11.4,4.3,11.4c3.3,0,6.6,0,10,0c-0.8,7.9-1.3,15.9-1.5,24.1
	c-0.2,6,6.7,8.5,10.4,4.7c9.3-9.5,22.5-14.6,37.3-17.3c2.4,1.8,6.2,1.2,8.2-1.3c19-2.4,39.7-1.6,57.8-1.4c4.9,1,9.8,2,14.7,3.1
	c33.3,7.9,66.7,18.6,101.2,16.4c38.2-2.4,74.8-18,112.9-22.4c35.3-4,71-6,106.5-8.5c17.8,2.6,35.5,5.9,53.3,8.9
	c73,12.3,138.3,2.4,209.8-12.2c76.4,8.3,152.3,19.3,228.6,4.4c6.7-1.3,5.1-11-0.4-12.7c3.1-0.5,6.1-1.1,9.2-1.7
	c1.5,4.4,3,8.7,4.8,13.1c2,5,10.4,3.9,11.2-1.6C998.3,499.6,988.3,406.9,984.3,318.9z M948.5,84.8c5,116.8,9,233.7,11.7,350.6
	c0.4,17.4,0.8,34.7,1.2,52.1c0.1,2.4,0.3,5.5,0.6,8.9c-0.1,0.4-0.3,0.7-0.3,1.1c-1.5,14.8-1.3,28.8,0.4,42.5
	c-11.9,26.1-62.5,19.3-86.3,19.1c-31.8-0.3-62.4,1.3-93.1,5C681.8,551.8,581,528,479.2,542.8c-81,11.8-161.1,27.8-242.5,36.7
	c-11.4-2.5-22.9-5.4-34.7-7.9c-40.7-8.6-82.2-9.2-123.5-7.8c0-162.6-13.1-324.7-39-484.9c47.6,46,123.3,51.2,181,76.5
	c5.3,2.3,10.5,4.7,15.7,7.2c2.4,1.3,4.9,2.6,7.3,3.8c36.3,22.2,62.8,61.3,97.9,86.2c35.6,25.3,74.5,44,113.5,62.1
	c8.8,13.6,20.3,32.8,33.2,34.5c13.3,1.8,30.1-19.9,38.4-26.6c9.2-7.5,18.6-14.3,28.1-20.8c24.1-4.6,48.8-6.6,72.8-13.4
	c45.8-13,88.8-40.2,131.4-61.9c70.1-35.8,135.6-68.8,180.8-134.4C942.6,89.9,945.5,87.4,948.5,84.8z M38,551l-1.2-222.2
	c4.3,79,11.1,157.8,23.6,235.8c-7.4,0.3-14.9,0.7-22.3,1.1l0-0.1c0.5-2.9,1-5.7,1.6-8.6C40.1,554.5,39.3,552.5,38,551z M43.6,194.6
	c13.2,107.3,20.6,215.3,22.2,323.5C51.5,411,46.8,302.8,43.6,194.6z M299.4,197.4c41.8,25.7,81.5,55.5,120.4,86.3
	c-24.9-12.5-49.3-26-72.2-42.3C330,228.8,314.8,212.9,299.4,197.4z M472.8,310.4c4.1,3.4,8.3,6.7,12.4,10.2c0.1,0.1,0.2,0.1,0.3,0.2
	c0.9,4,4.7,7.3,8.8,4.4c5.6-3.9,11.4-7.2,17.3-10c0.6,0.7,1.4,1.2,2.2,1.6c-0.5,0.3-1,0.7-1.5,1.1c-6.4,4.4-19.1,16.1-28.2,13
	c-3.4-1.2-7.9-6.6-12.3-12.8C473.6,316.2,474.2,313.2,472.8,310.4z M676.8,240.9c52.3-19.6,99.6-49.1,148-77.8
	c24.4-14.4,50.4-27.9,75.3-43.2c-47.2,47.7-108.2,75.3-169.4,106.5c-43.6,22.3-86.2,47.1-134.3,55.4c-4.3,0.7-8.6,1.4-12.9,2.1
	C613.2,266.7,644.4,253,676.8,240.9z M636.6,242.9c99.8-59.1,202.2-113.1,302-172.3c-2.5,4.2-5.2,8.1-7.9,12.1
	c-31.5,24.9-68.4,43-102,62.9c-47.2,28-93.8,58.8-144.6,78.4C668.1,230.2,652.2,236.3,636.6,242.9z M840.1,31.9
	c19.3,1,38.5,2.5,57.7,4.4c9.7,0.9,27.5,0.7,43,3.2c-1.2,3-1.9,6-2.3,9.2c-7.7,1.2-15.5,2.2-23.2,3C853,42.2,790.5,36.1,727.9,32.1
	C765.3,29.7,802.8,29.9,840.1,31.9z M816.6,52.5c-13.3-0.9-26.6-2.2-39.9-3.6C790,50,803.3,51.2,816.6,52.5z M159.3,45.5
	c39.8,0.7,79.1,6.4,119.1,4.6c41.4-1.9,82.5-7.6,123.7-12.4c25.4,0.1,50.8,0.2,76.2,0.3c39.6,0.2,79.3,0.7,118.9,1.7
	c-13.2,2.8-26.5,5.6-39.8,8.6C474.1,67,387.6,61.5,302.9,60.1c-66.8-1.1-133.5-3.6-200-9.9C121.5,46.9,140.2,45.2,159.3,45.5z
	 M278.8,73c76.7,1.6,155.6,6.7,232-2.8c46.2-5.8,91.1-17.7,136.5-26.8c89.2,13.1,178.1,30.1,267.5,21.5c2.1,0.3,4.2,0.7,6.3,1
	c-130.8,76.9-265.8,145.5-393.2,229.1c-12,3.6-23.6,8.6-34.8,15.7c-7.3-6.3-14.6-12.4-22.1-18.4c-0.4-0.4-0.8-0.7-1.2-1
	c-121.4-97.7-266-162.4-403-231.4C137.2,67.9,208,71.5,278.8,73z M48.5,65.3c32.8,17,65.7,33.9,98.5,50.9c-2-0.6-4.1-1.2-6.1-1.8
	c-34.8-10-70.1-21.7-95.8-47.8C46.3,66.2,47.4,65.7,48.5,65.3z M33.6,601.9c0.2-3.5,0.5-6.9,0.9-10.3c9.1,0.1,18.1,0.3,27.1,0.7
	C51.7,593.7,42.3,596.4,33.6,601.9z M140,587.6c-3.2-0.7-6.4-1.4-9.6-2c-17.2-3.3-34.6-5-52-6.1c0-0.8,0-1.6,0-2.3
	c26.1-0.9,52.2-1,78.2,1.2c11.5,1,22.8,3.1,34.1,5.6C173.8,585.4,156.9,586.6,140,587.6z M250.3,606.4c-23.3,1.5-46-2.9-68.5-8.5
	c16.5-1.3,33-2.8,49.5-4.4c15.8,3.5,31.7,6.3,47.9,6.5c3.8,0.1,7.5-0.1,11.3-0.3C277.2,602.9,263.8,605.5,250.3,606.4z M551.8,588.9
	c-9-1.2-17.9-2.5-26.8-4c53.6-3.7,106.8-6.2,160.5-3.3C641.3,589.9,597.4,594.9,551.8,588.9z M732.8,572.2c-9.1-1-18.1-1.9-27.2-2.8
	c-77.9-7.1-155.3,0.2-233.1,6c-1.5,0.1-2.9,0.2-4.4,0.3c-29.9-4.2-60-6.4-90.7-2.3c-25.5,3.5-50.7,9.8-76.4,12.2
	c-1.8,0.2-3.6,0.2-5.4,0.2c75.3-10.5,150.3-29.4,225.9-34.4c74-4.9,147.2,8,220.4,18.9C738.8,571,735.8,571.6,732.8,572.2z
	 M779.7,577.4c2-0.3,4.1-0.6,6.1-0.9c47.8,6,95.7,9.5,143.8,4.9C879.6,587.2,829.6,582.9,779.7,577.4z M947.9,566
	c6-1.5,12-3.3,18-5.4c0.2,0.7,0.4,1.5,0.6,2.2C960.3,564,954.1,565.1,947.9,566z M977.4,556.3c-1.2-4.9-2.1-9.8-2.8-14.7
	c-0.3-13.9-0.6-27.8-0.9-41.6c0.1-0.8,0.1-1.6,0.2-2.4c0.1-1.1,0-2-0.3-2.9c-2.2-107.1-5.4-214.1-9.4-321.1
	c2.8,44.1,5.2,88.2,7.3,132.4C975.3,387.5,984.7,474.1,977.4,556.3z"/>
</svg>
