<?xml version="1.0" encoding="utf-8"?>
<!-- Generator: Adobe Illustrator 23.0.4, SVG Export Plug-In . SVG Version: 6.00 Build 0)  -->
<svg version="1.1" id="Layer_1" xmlns="http://www.w3.org/2000/svg" xmlns:xlink="http://www.w3.org/1999/xlink" x="0px" y="0px"
	 viewBox="0 0 525 1000" style="enable-background:new 0 0 525 1000;" xml:space="preserve">
<style type="text/css">
	.st0{fill:#7D7773;}
</style>
<path class="st0" d="M498.7,34.6c-2.9-0.1-5.4,0.4-7.6,1.5c-0.4-0.1-0.7-0.2-1.1-0.2c-0.9,0-1.7,0.1-2.6,0.1
	c-0.2-1.2-0.4-2.5-0.5-3.7c1.4-0.4,2.8-0.7,4.3-1.1c4.4-1.3,2.5-7.5-1.8-6.7c-5.1,0.9-10.1,1.7-15.2,2.4C452.3,3.9,417,4.9,386.1,7
	c-47.5,3.3-98.6,9-138.7,37c-8.2,5.7-15.3,12.3-21.7,19.4c-0.1-0.3-0.1-0.6-0.2-0.9c-1-3-6-3.6-6.7,0c-0.8,4.1-1.5,8.2-2.3,12.4
	c-0.9,1.2-1.8,2.3-2.6,3.5c-2.7,1.6-5.3,3.4-7.4,5.5c-10.7,10.6-12.7,27.6-16.1,41.4c-0.3,1.1-0.5,2.2-0.8,3.3
	c-3.4,10-6.4,20.3-9,30.6c-12.1,47.3-18.2,95.6-19.3,144.2c-0.2,2.5-0.5,5-0.7,7.5c-0.8,9.6-1.1,19.4-2.6,28.9
	c-31.7,22.6-68.2,31.1-104.7,25c0-0.7,0-1.4,0-2.1c0.1-8.6-12.7-8.9-13.7-0.9c-6.4-1.7-12.8-3.9-19.2-6.5c-4.3-1.8-8.8,2.6-8.8,6.7
	c-0.1,44.5-0.3,89-0.4,133.5c-0.1,17.3-5.6,41,14.1,48c1,0.3,2.1,0.3,3.2,0.1c1.6,2.9,6.6,2.6,6.5-1.4c0-1.3-0.1-2.7-0.1-4
	c4.7-6.1,8.1-12.5,10.7-19.1c0.6,0.6,1.3,1,2.4,1h5.5c3.1,0,4-3.4,2.8-5.4c5.3-1.4,11-3,17-4.7c24.1-2.1,48.3-2.1,72.5-0.1
	c-16.5,10-33.6,18.7-51.3,25.9l-68.7,20c-4.4,1.3-2.5,7.5,1.8,6.7c23.9-4.4,47.1-11.2,69.4-20.2c13.1-3.8,26.1-7.6,39.2-11.4
	c4-1.2,2.6-7-1.1-6.8c4.1-2.3,8.2-4.6,12.3-7c-0.2,72.3-0.3,144.7-0.5,217c-0.1,46.6-1.8,93.9,4.8,139.8c-0.6,6.3-1.1,12.6-1.7,18.9
	c-0.4,4.4,2.9,6.6,6.3,6.7c2.3,10.4,5.2,20.8,8.8,31c1,5.8-1.1,10.6-6.4,14.4c0-0.3-0.2-0.6-0.2-0.9c-0.6-3.9-7.1-3-6.8,0.9
	c0,0.3,0.2,0.6,0.2,0.9c0,0,0,0-0.1,0c3.3,22.9,22,38.8,43.8,44.2c29.6,7.3,59.5-6.2,85.9-18.2c3.3-1.5,1.5-6.5-1.8-6.5
	c-19.5,0-39,0-58.5,0c2.6-1.6,5.3-3.2,7.9-4.7c10.9-0.8,21.9-1.5,32.8-2.3c13.1-0.9,41.8-2.6,59.7-11.6c0,0.2,0,0.5,0,0.7
	c-0.2,4.5,6.8,4.5,7,0l0.2-5.2c0.3-0.2,0.6-0.4,0.8-0.6c3.2,5.1,12.9,4,12.9-3.5c-0.7-109.8-0.5-219.6,0.4-329.3
	c0.7-16.2,1.4-32.4,2-48.6c0.1-1.4-0.6-2.4-1.6-2.9c0.1-5.1,0.1-10.3,0.1-15.4c5,0,10,0,15,0.1c28.5,4.4,57.1,7.9,85.9,10.2
	c4,0.3,6.7-3.5,7-7c4.8-62.9,19.5-122.9,43.9-181c3.5-8.2-10-11.8-13.4-3.7c-0.8,2-1.6,4-2.4,5.9c-0.5-1.5-1.4-2.8-3-3.6
	c-9.8-5.2-19.9-9.3-30.1-12.5c3.8-1.9,7.6-3.8,11.4-5.9c3.4-1.9,1.1-7.5-2.7-6.4c-9.7,3-19.4,5.4-29.3,7.3c-24.5-4.3-49.5-2.9-74,4
	c-2.2-0.2-4.5-0.4-6.7-0.6c-3-23.7-4.1-47.5-2.8-71.3c2.6-6.5,5.5-12.9,8.7-19.1c0.5,0,1.1-0.1,1.6-0.5c13.3-9,23.4-20,31.1-34.1
	c2.1-3.9-3.9-7.5-6-3.5c-4.9,9-10.8,16.5-17.9,23.1c0.2-0.3,0.4-0.7,0.6-1c22.1-33.6,49.8-55.4,86-61.3c0.2,0,0.3,0.1,0.5,0.1
	c10.5,2.2,19,1.8,28.2-1.6c0.3,0,0.6,0,0.8,0c2.8,0.2,4.6-1.1,5.6-2.9c1.6-0.9,2.4-2.2,2.8-3.6c0,0.3,0.1,0.7,0.1,1
	c0.3,2.3,1.5,3.7,3,4.4c-0.1,0.4-0.2,0.7-0.3,1.1c-2.3,8.7,11.1,12.4,13.4,3.7c0.7-2.6,1.3-5.2,1.9-7.9c2,0.9,5.2-0.4,5.2-3.1
	c0.2-7.9,0.4-15.8,0.5-23.8c4.3-23.5,6.8-47.3,6.9-71.4C514.9,64.9,518.2,35.5,498.7,34.6z M39.5,376.3c0.1,2.1,0.1,4.5,0.2,6.9
	c-0.2,0.1-0.4,0.1-0.7,0.1c-1.6,0-3.2,0-4.8,0c-1.4-3.3-2.9-6.6-4.6-9.8C33,374.5,36.2,375.5,39.5,376.3z M30.7,404
	c-0.1-3.6-0.2-7.3-0.3-10.9c0.1,0,0.2-0.1,0.3-0.1c1.5,4,2.7,8,3.8,12.1c-1.4-0.2-2.6-0.5-3.5-0.9C30.8,404.1,30.8,404,30.7,404z
	 M35.6,505.3c-0.6,0.1-1.3,0.2-1.9,0.3c-0.9-31.3-1.8-62.6-2.8-93.9c1.7,0.4,3.4,0.7,5.3,0.9c2.4,12.4,3.1,25.2,2,38.3
	c-0.2,1.8,0.9,2.9,2.3,3.2C39.9,473.9,38.6,492.5,35.6,505.3z M344.5,25.1c28.5-4,76.2-13.1,106.1,1.8c-17.6,0.4-35.1,1.4-52.6,3.4
	c-1.6,0.2-2.7,1.4-3.2,2.8c-20,0.4-40.1,0.2-60.4-0.2c-0.5-0.2-0.9-0.4-1.4-0.4c-8.8-1-17.5-0.8-26.1,0.3
	C319.1,29.4,331.8,26.9,344.5,25.1z M402.5,40.8c-19.7,1.9-39.4,4.3-59,7.4c-5.1,0.8-10.2,1.8-15.3,2.7c2.5-3.3,4.7-6.9,6.5-10.9
	c4.5,0.2,8.9,0.4,13.3,0.6C366.2,41.4,384.4,41.4,402.5,40.8z M276.8,48.8c9.5-4.5,19.8-7.6,30.3-9.1c6.7-0.3,13.5-0.2,20.2-0.1
	c-2.6,4.9-6,9.2-9.9,13c-16.4,3-32.8,6.3-49.1,10.2C271.1,58.2,273.8,53.5,276.8,48.8z M292.6,69.4c-11.4,5.6-23.9,10.2-35.9,15.2
	c1.5-2.9,2.9-5.8,4.4-8.7C271.2,73.2,281.9,71.1,292.6,69.4z M264.7,55.6c-1.9,3.1-3.8,6.2-5.6,9.4c-2.8,0.6-5.9,1.2-9,1.8
	C254.6,62.6,259.5,58.9,264.7,55.6z M228.2,95.5c1.8-3.4,3.7-6.7,5.8-9.8c5.5-2.6,11.4-5,17.7-7c-1.8,3.4-3.4,6.8-5.1,10.3
	c-6.8,3.1-13.2,6.4-19,10.3C227.9,98,228.1,96.7,228.2,95.5z M185.6,218.7c0.4-2.3,0.7-4.8,1.1-7.4c2.2-7.5,4.5-15,7.1-22.5
	c0.8-2.3,1.7-4.5,2.6-6.8c-6.1,32.8-12.2,65.6-18.4,98.4C180,259.8,182.4,239.2,185.6,218.7z M105.1,393.1c4.1,0.2,4.5-5.6,0.9-6.8
	c-8.1-2.8-16.3-4.6-24.5-5.6c24.5-0.9,48.4-7.9,70.4-20.6c-2.6,5.3-6.1,10.3-10.9,14.7c-15.1,13.8-37.3,19.8-56.8,24.3
	c-10.2,2.4-20.6,4-31,5c0-4.4,0-8.7,0-13.1C70.4,391.7,87.8,392.4,105.1,393.1z M147.2,503c-12.9-1.1-25.7-1.7-38.5-1.7
	c13.7-2.6,27.1-4,38.5-2.9C147.2,500,147.2,501.5,147.2,503z M164.2,614.6c-1-0.7-2.3-0.9-3.4-0.6c0.1-37.5,0.2-75,0.3-112.4
	c1.4,0.5,2.6,1.3,3.8,2c-0.4,0.5-0.7,1.2-0.7,2L164.2,614.6z M263.1,972.3c-18.8,8.1-38.9,14.8-59.3,12.1
	c-18.8-2.5-35.9-13.4-42.8-30.7c3.2-0.3,6.5-2.2,8.5-5.6c1.8,6.2,5,11.3,10.9,14c7.8,3.5,18.9,0.6,27.1,0.1c2-0.1,4.1-0.3,6.1-0.4
	c-2.3,1.4-4.7,2.7-7,4.2c-2.9,1.8-1.8,6.5,1.8,6.5C226.7,972.3,244.9,972.3,263.1,972.3z M174.5,618c-0.9,6.1-1.6,11.9-2.1,17.5
	c-0.4,4.6-0.8,9.2-1.2,13.9c0-47.1-0.1-94.1-0.1-141.2c3.3,3.3,5.9,7.3,7.4,12.6c1.5,5.3,2.4,10.9,2.9,16.8
	c-3.8-0.5-7.9,1.7-7.8,6.6C174.1,568.7,174.3,593.3,174.5,618z M173.7,792.7c-0.5,30.6-1.3,61.1-2.2,91.6c0-4.7-0.1-9.5-0.1-14.2
	c0-18,0-36,0-53.9C172.2,808.4,172.9,800.5,173.7,792.7z M234.7,946.3c-3.7,0.3-11.7,1.8-19.9,2.9c0.9-0.6,1.7-1.1,2.6-1.7
	c13.9-9.1,24.4-15.7,41-18.4c7.1-1.2,16.7-3.7,26-5.3c-14.7,6.8-29.2,14.2-43.4,22.1C238.8,946,236.8,946.2,234.7,946.3z
	 M303.4,940.9c-8.4,1.2-16.9,2.1-25.4,2.5c-6.9,0.6-13.7,1-20.6,1.5c15.1-7.9,30.5-15.2,46.2-22.1c0.1,0,0.2,0,0.3,0
	c5.2-1.6,8.7-2.2,10.8-1.8c0.2,1.5,0.8,2.8,1.7,3.7C315.3,928,311,933.4,303.4,940.9z M403.7,535.1c-6-1-11.2-2.1-13.6-2.4
	c-16.3-2.1-32.4-4.7-48.6-7.5c8.5-5.7,19.4-4.6,30.1-7.1c14.9,4.3,29.1,9.9,42.8,17C410.8,535.2,407.3,535.2,403.7,535.1z
	 M415.6,528c-10.8-5.5-21.9-10-33.4-13.7c4.8-2.3,10.6-5.4,16.7-8.1c5.4-1,10.6-2.2,14.6-4.8c0.3-0.2,0.5-0.4,0.7-0.6
	c2-0.4,3.9-0.7,5.8-0.8C418.5,509.3,417.1,518.6,415.6,528z M430.9,536.9c-0.3-0.5-0.6-0.9-1.1-1.2c-2.1-1.3-4.3-2.4-6.4-3.5
	c2.9-9.7,5.6-19.5,7.9-29.3c2.9,2.1,5.3,5.4,6.7,10.5c0.5,1.9,1.7,3.2,3,4C439.8,525.9,437.3,533.7,430.9,536.9z M475.8,374.9
	c-15,38.2-26.2,77.6-32.7,118.3c-0.1,0.6-0.2,1.2-0.2,1.9c-2.6-2.4-5.5-4.1-8.7-5.5c1.6-7.7,3-15.4,4.1-23.2
	c1.6-11,2.9-22.1,3.7-33.1c0.9-11.6,3.5-27,1.8-38.9c0.5-3.4,1.1-6.8,1.6-10.2c9.9-3.1,19.7-6.1,29.3-8.7
	C475,375.3,475.4,375.1,475.8,374.9z M426.2,359.4c7.7,1.5,15.3,3.8,22.8,6.5c-13.3,0.1-26.6,0.1-39.9,0.2c-0.2-0.1-0.4-0.1-0.5-0.2
	C414.5,363.9,420.4,361.8,426.2,359.4z M386.1,356.9c8.7-0.6,17.4-0.6,26,0.3c-4.6,1.6-9.1,3.2-13.8,4.6c-4.5-1.8-9.1-3.4-13.7-4.8
	C385.1,357,385.6,357,386.1,356.9z M367.3,359.6c6.6,1.5,13.1,3.2,19.6,5.3c-1.8,0.5-3.6,1-5.5,1.5c-3.9,0.9-3,6.9,0.9,6.8
	c8.4,0,16.8-0.1,25.1-0.1c2.8,1.2,5.7,2.5,8.5,3.9c-14.9,4.8-35.2,12.3-47.4,7.4c-11-4.4-15.4-14.9-24.8-18.1
	C351.5,363.3,359.4,361.2,367.3,359.6z M359.8,219c-4.7,5.9-9.2,12.2-13.4,18.8c1.2-6.9,2.6-13.7,4.2-20.5
	c5.4-22.8,8-34.6,30.8-44.5c16-7,20.9-7.2,31.5-3.6C390.9,180.1,371.9,197.4,359.8,219z M473.8,164.9c-0.5,0.2-0.9,0.4-1.4,0.6
	c-10.2-0.4-20,0.2-29.3,1.8c-0.8-0.2-1.6-0.4-2.5-0.6c11.7-2.8,23.7-3.7,35.9-2.4C475.6,164.3,474.7,164.5,473.8,164.9z
	 M428.6,162.9c-26.1-9.3-51.9-23.3-74.2,6.9c-20.5,27.7-27.1,68.8-27.7,108.6c-13.4,35.5-26.9,90.3,3,101.6c2.6,1,4.6,0.3,6.1-1.1
	c0.5,0,1,0.2,1.6,0.1c6.9-1.1,15.6,14.7,20.9,17.8c7.7,4.4,14.7,4.1,23.3,3.1c16.6-1.9,33.5-6.5,50.3-11.6c1.8,2.3,2.9,4.7,3.6,7.2
	c-0.8,5.3-1.3,10.6-1.5,16c-3.6,23.1-7.3,46.1-10.9,69.2c-1.4,2.4-2.9,4.4-4.6,6.3c-6.6,0-13.4,1.3-19.9,3.5
	c-20.8,7.1-26.7,13.3-53.2,15.4c-5,0.4-11.3-2-16.4,0.3c-11.7,5.2-10.8,15.2-11.5,26.2c-7.5,124.1-2.4,250.5-3,375
	c-24,3.1-48.6,5.2-72.1,10.5c-15.8,3.6-40.4,28.4-55.9,26.4c-1.2-2.1-2.1-4.5-2.7-7.1c3.7-98.9,5.4-197.8,4.9-296.7
	c2.5-31.6,4.5-63.1,5.4-94.6c0.7-24.1-2.5-53.8-27.7-64.7c-16.8-7.2-34.8-0.2-50.9,4.8c-21.8,6.7-43.4,12.5-65.6,16.9
	c1.2-6.5,1.9-13.3,2.2-20.4c1.1-23.1,1.2-46.4,1.1-69.7c18.5-1.8,38.4-8,47.6-10.8c28.4-8.5,49.6-21.3,59.5-45.6
	c2.4,5.9,12.8,5.1,13.2-2.5c1.3-1.1,2.1-2.8,2-5.1c-0.2-5-0.2-10-0.3-15c11.2-59.8,22.3-119.6,33.5-179.4
	c6.5-14.3,12.9-28.9,16.7-43.8c4.8-4.3,10.4-8,16.4-11.3c-40.4,87.4-55.5,184.6-69.5,279.6c-0.6,4.4,6.1,6.3,6.7,1.8
	c14.4-97.5,29.8-197.4,72.9-286.5c10.9-5,22.2-9.1,31.8-13c9.9-4,19.4-8.7,27.8-14.6c12.6-1.8,24.8-3.3,35.7-5
	c44-6.9,88.3-10.4,132.8-11.5c-9.5,26.2-2.6,79.2,1.6,107.7C463.7,155.2,445.6,157.3,428.6,162.9z M335,354.9
	c-1.6,0.6-3.3,1.3-4.9,1.9c-0.8,0.3-1.4,0.8-1.9,1.3c-1.5-7.4-0.8-18.3,0.7-28.8c0.6,7,1.4,13.7,2.2,20
	C331.3,352,333,353.8,335,354.9z M494.6,145c-0.8-8.5-1.5-17.1-2-25.7c1,6.6,1.9,13.2,2.9,19.7C495.3,141.1,495,143.1,494.6,145z
	 M499.6,108.8c-0.2,1.9-0.5,3.8-0.6,5.8c-2.3-15.5-4.6-31.1-6.9-46.6c1.1-8.4,3.5-14.1,8.4-11.8C505.1,58.2,500.1,103.2,499.6,108.8
	z"/>
</svg>
