<?xml version="1.0" encoding="utf-8"?>
<!-- Generator: Adobe Illustrator 23.0.4, SVG Export Plug-In . SVG Version: 6.00 Build 0)  -->
<svg version="1.1" id="Layer_1" xmlns="http://www.w3.org/2000/svg" xmlns:xlink="http://www.w3.org/1999/xlink" x="0px" y="0px"
	 viewBox="0 0 1000 1000" style="enable-background:new 0 0 1000 1000;" xml:space="preserve">
<style type="text/css">
	.st0{fill:#7D7773;}
</style>
<g>
	<path class="st0" d="M949.2,296.5c0-2.7,0-5.5-0.1-8.2c0.6-7.3,1.2-14.7,1.7-22c0.2-2.4-0.7-4-2.1-5.1
		c-1.6-55.7-9.7-113.3-38.8-160.9c-9.9-28.1-27.2-52.1-57.4-68.6C806.7,6.7,753.2,6.4,703,15.4c-17.1-0.2-34-0.2-50.3-0.8
		c-4.4-0.2-4.4,6.6,0,6.8c6.4,0.2,12.9,0.4,19.4,0.6c-31.1,7.5-61.7,17-93,23.5c-3.5,0.7-7,1.3-10.4,1.9l-113.2-8.3
		c-2.3-0.4-4.6-0.8-7-1.1c-18.3-2.4-36.7-3.4-55.1-3.4c-4.3-0.3-8.6-0.6-13-0.9c-60.7-4.4-126-16.3-186.8-11.4
		c-39.1,3.2-71.6,22.9-94.9,54.2c-30.4,40.8-38.4,92.3-39.3,142c-0.8,42.6,0.6,85.3,2.4,128c-4.5,18.3-8.3,36.9-10.9,55.7
		c-13.4,94.7-8.6,192.1-9.2,287.5c-0.3,58.1-8.5,128,26.7,177.8c-0.2,3.6-0.4,7.3-0.6,10.9c-0.9,19.7,1.5,38,17.2,51.5
		c15.9,13.7,38.2,21.6,57.7,28.9c49.4,18.5,99.4,25.2,149.8,25.8c6.4,1.1,12.7,2.2,19.2,3.1c0.8,0.1,1.6,0.2,2.5,0.3
		c73.4,9.6,151.7,3.2,221.1-2c79.8-6,161.3-7.8,240.5-18.9c19.2-2.7,36.1-7.8,50.8-15.2c17.5,0.5,34.9,1.2,52.4,2.1
		c1.9,0.1,3.3-1.6,3.4-3.4c1.6-20.1,3.1-40.3,4.7-60.4c5.8-3,11.5-6.3,16.6-10c18.7-13.6,28.7-32.8,34.2-53.8
		c-4.6,50.3-18,99.6-58.5,132.4c-3.4,2.8,1.4,7.5,4.8,4.8c49.9-40.5,60-107.2,62.3-167.8c1.9-50.1,2-100.3,1.8-150.5
		c0.4-17.6,0.8-35.1,1.3-52.7C952.3,497.1,964.5,393.3,949.2,296.5z M645.5,43.1c21.2-5.6,42.6-11.1,64.2-14.8
		c17.1,0.4,34.3,3.3,50.8,7.1c48,11,140.2,30.5,128.2,98.4c-0.8,4.3,5.8,6.1,6.6,1.8c9.5-54.2-44.3-82-87.8-94.8
		c-21.7-6.4-44.5-12.8-67.5-16.4c9.6,0.4,19.2,1,28.8,1.6c39.5,2.7,76.1,13,105.4,40.6c3.3,3.1,6.4,6.3,9.4,9.6
		c20.6,28.1,23.3,63,24.5,97c-33.1-57-85.5-100.7-153.6-110.9c-40.6-6.1-82.1-8.5-123.5-10.9C635.9,48.6,640.7,45.7,645.5,43.1z
		 M566.6,60.9c7.7,0.6,15.4,1.1,23,1.7c-11.7,2.4-23.6,2-35.6,0C558.2,62.1,562.4,61.6,566.6,60.9z M71.3,817.4
		c-4.1-0.2-8.7,3.2-7.7,8.5c0.4,2.1,0.9,4.1,1.5,6.1c-16.8-45.8-9.9-103-9.7-149.1c0.4-72.4-1.2-145.1,3-217.3
		c1.1-19.5,3.2-38.7,6-57.7c0.3,8.5,0.6,17,0.9,25.5c0.6,18.8,1.2,37.5,1.8,56.3c-3,66.6-3,133.4-1.9,200.1
		c0.5,32.7,2,65.9,8.2,97.8C72.5,797.5,71.9,807.4,71.3,817.4z M73.1,218.5C74,168.9,82,117.3,114.8,78
		c39.5-47.3,92.6-43.3,148-39.2c-17.2,0.8-34.1,3.3-49.3,9.4c-30.7,12.3-51,42-66.8,74.5c-9.6,10.1-17.8,22.1-24.5,35.1
		c4.5-31.6,14.3-63.4,41.1-83c3.5-2.6,0.1-8.5-3.4-5.9c-32,23.3-41.7,61.9-45.8,99.4c-0.4,3.5-0.7,7-1,10.4
		c-0.1,0.4-0.3,0.8-0.4,1.1c-8.1,22.7-14.5,46.3-19.7,70.4c-7.1,18.3-13.7,36.7-19.5,55.4C72.7,276.6,72.5,247.5,73.1,218.5z
		 M107.6,250c-1.7,29.2-3.1,58.4-4.9,87.5c-6,93.4-12,186.8-18.1,280.2c-0.8-25.5-1.6-51-2.4-76.6c-0.5-15.9-1.1-31.7-1.7-47.6
		c2.6-62.3,7.9-124.6,17.7-186.2C100.6,291.5,103.5,271.4,107.6,250z M79.3,334.7c-1.5,12.4-2.7,24.8-3.9,37.2
		c-0.2-6.2-0.4-12.3-0.7-18.5C76.2,347.2,77.6,340.9,79.3,334.7z M199.9,968.8c-34.1-7.7-71.1-18.7-101-37.3
		C78.8,919,73.6,901,74.6,878.4c0-0.9,0.1-1.8,0.2-2.7c2,2.4,4,4.8,6.3,7.1c4.1,4.1,11.8,1.2,11.6-4.8c-0.1-3.9-0.2-7.8-0.4-11.7
		c4.4,2.7,9.1,5,14,7c2.6,3.9,5.3,7.8,8.3,11.6c38.6,50,89.6,77.9,146,92.8C240.3,976.1,220.1,973.3,199.9,968.8z M130.2,880.8
		c4.6,1.2,9.1,2.2,13.6,3.2c31.7,7.1,52.1,19.9,72.4,45.4c8.1,10.2,16.2,19.7,25.5,28c-11.6-4.3-23.1-9.2-34.2-14.9
		C176.6,926.7,150.5,906,130.2,880.8z M747.5,956.4c-36.2,3-72.5,5.5-108.7,8.2c-63.3,4.8-132,14.4-200.2,17.1
		c43.5-5.4,87-12,130.2-19.2c10.4-1.8,20.9-3.6,31.3-5.5c62.5-4.5,125.2-6.4,188-5.7C774.7,953.9,761,955.3,747.5,956.4z
		 M811.8,944.7c-6.4-0.1-12.8-0.3-19.2-0.4c-39.9-0.6-79.8,0-119.6,1.5c-6,0.2-11.9,0.6-17.9,0.8c32.7-6.4,65.4-13.3,97.9-20.8
		c34.4-7.9,77.1-13.1,113.3-26.6c-4.2,7.1-9.1,13.7-14.7,19.7C840.3,931.4,826.6,939.3,811.8,944.7z M878.8,910.3
		c-0.7,8.8-0.4,18.2-2.1,26.9c-1.3,6.6,0.6,6.6-4.3,9.7c-2.6,1.7-13.2-0.6-16.6-0.8c-5.9-0.3-11.9-0.4-17.8-0.6
		c17.4-11.1,31.3-26.2,41.6-45.1C879.3,903.7,879.1,907,878.8,910.3z M882.4,860.9c-1.8,6.3-3.9,12.5-6.3,18.5
		c-10.3,4.3-21.3,7.4-32.2,10.3c-54.2,14.7-109.1,27-164.1,38.3c-55,11.3-110.4,21.2-165.9,29.5c-5.6,0.8-11.3,1.7-16.9,2.6
		c-19.5,2.3-39.1,4.7-58.6,7.3c-25.6,3.4-51.3,6.5-77.1,8.7c-8,0.2-15.9,0.2-23.8-0.1c-31.9-1.1-64.1-7.8-88.6-29.7
		c-17.4-15.6-28.2-37.3-46.3-52.3c-21-17.3-56.5-19.9-84.6-29.9c-12.1-18.4-21.4-38.8-27.6-61.1c-1.2-38-2.4-76.1-3.6-114.1
		c2.4-37.4,4.8-74.8,7.2-112.2c5.8-89.8,11.6-179.6,17.4-269.4c1.7-26,3.1-52,4.7-78c9.5-22.6,19.7-45,30.1-67.3
		c5.8-12.5,11.5-26.4,18-39.9c16.4-13.7,37-20.6,63.5-16c8.6,1.5,12.2-11.6,3.6-13.1c-20.9-3.6-39.5-0.2-55.7,8
		c7.1-11.6,15.5-22,26-29.8c19.3-14.5,44.8-18.3,70.1-18.7c-3.1,0.9-6.3,1.7-9.4,2.7c-4.2,1.3-2.4,7.9,1.8,6.6
		c10.7-3.4,21.6-6.2,32.6-8.8c6.4,0.3,12.7,0.6,18.7,0.9c36.1,1.8,72.1,6.4,108.1,9.8c37.6,3.5,73.8,4.3,110,1.3
		c23.1,6.2,46.9,10,69.8,1.1c1.6-0.6,3.1-1.3,4.6-2c49.5,3.4,100.6,3.8,149.4,12.4c52.6,9.3,95.8,39.7,126.4,83
		c10.3,14.6,18.7,29.9,25.7,45.7c0.6,17,1.2,34,1.8,51c-2.9,137.5-8,274.9-15.8,412.2C891.5,732.5,887.2,796.7,882.4,860.9z
		 M914.9,371.1c1.4,41.5,2.9,83,4.3,124.5c-6.3,74.1-13,148.1-20.1,222c-0.1,1.5-0.3,3.1-0.4,4.7
		C905.8,605.3,911.3,488.2,914.9,371.1z M930.9,775.8c-1.2,24.9-3,52-16.8,73.7c-6,9.5-13.7,16.5-22.5,22c1.4-4.5,2.8-9.1,3.9-14
		c19-79.8,21.1-166.3,27.4-248.7c0.9,26.2,1.8,52.5,2.7,78.7c0.2,5,4.6,7,8.4,6.3C933.3,721.2,932.3,748.5,930.9,775.8z
		 M925.3,250.8c4.1,15.4,7.2,31.1,9.5,47c-1.7,22.9-3.4,45.9-5.2,68.8C928.4,327.9,926.9,289.3,925.3,250.8z M939.7,459.5
		c-1.3,46.7-2.1,93.6-3.1,140.4c-1.1-37.4-2.2-74.8-3.3-112.2c2.6-30.3,5.1-60.7,7.5-91.1C940.8,417.7,940.3,438.8,939.7,459.5z
		 M933.3,229.2c-2.9-8.9-6.4-17.6-10.1-26.2c-0.6-12.3-1.1-24.5-1.7-36.8c-0.6-12.6-1.9-24.9-4-36.8c17.4,40.4,23,86.3,24.4,130.5
		C939.4,249.6,936.6,239.3,933.3,229.2z"/>
	<path class="st0" d="M699,202.2c-22,27.4-16.9,81.1,17.3,95c8.7,12.9,25.4,14.2,39.2,5.6c10.3-6.4,18.6-16.9,24.4-28.7
		c10-15.6,13.5-35.5,8.2-52.4C779.4,179.1,728.6,165.4,699,202.2z M710.1,276c-19-19.4-13-55.8,6.8-72.6c10-8.5,23.1-12.4,34.8-8.5
		c-0.3,0.9-0.6,1.9-0.5,2.9c-8.3-0.3-17.3,4.3-23.2,11.8C716.3,224.7,708.3,253.6,710.1,276z M771.8,257c-1.2,3.5-3.1,7.7-5.6,11.9
		c-8.8,11.7-21.7,19.6-35.5,17.7c-2.5-3.4-4.7-8.6-6.4-15.9c-1.8-7.6,2-18.3,3.7-25.4c0.9-3.8,2-7.6,3.3-11.3
		c1.9-13.1,10.3-18.9,25.3-17.4c3.2,6.6,11.9,2.8,12.4-3.2c1.9,2,3.4,4.2,4.7,6.5C777.1,231.8,775.7,245.2,771.8,257z"/>
	<path class="st0" d="M634.6,331c-4.1-3.5-8.4-6.8-13-9.9c-11-7.4-22.6-13.5-34.8-18.2c-39.4-20.5-81.1-37.6-126.4-30
		c-3.2,0.5-6.3,1.2-9.4,2c-1.9-0.5-3.7-1-5.6-1.3c0.8-0.8,1.6-1.6,2.4-2.4c3.1-3.1-1.7-7.9-4.8-4.8l-5.3,5.3
		c-0.2,0.2-0.3,0.4-0.4,0.6c-50-6.2-97.1,22.8-119.1,70.6c-4.5,9.7-7.9,19.8-10.6,30.1c-28.1,47.4-31.9,108.2-18.4,163.6
		c9.2,37.9,24.4,83.9,49.1,117.4c12.5,29,30.8,54,58.8,64.4c20.3,7.5,40.2,3.4,59.1-4.4c16.8,2.3,33.7,4.5,50.5,6.9
		c16,2.2,38.2,8.7,54.2,2.5c16.7-6.4,26.9-26.2,36.4-39.8c3.9-5.7,8-11.3,11.9-16.9c14.8,0.4,33.2,4.3,46.2-2
		c13.8-6.7,21.3-25.4,27.6-38.2c17.2-35.2,26.3-73.4,28.1-112.5C741.9,441.4,696.3,374.5,634.6,331z M465.6,286.6c0.1,0,0.2,0,0.3,0
		c16.2-1.9,31.9-0.8,47.5,2.6c-7-0.1-14,0.1-21,0.6c-23,1.7-45.7,6.6-67.8,13.5c-8.4,2.6-16.2,4.9-24.2,6.7
		c10.4-5.9,21.2-11.2,32.5-15.4C444.1,290.4,455,287.8,465.6,286.6z M358.6,300.4c22-17.9,50.1-24.7,77.4-21.4
		c-24,7.7-46.3,20.3-67.2,34.9c-3.9,0.2-7.6,0.6-11.8,2.4c-10.3,4.4-18.1,13.3-24.1,24.5c-1.2,1.2-2.4,2.5-3.6,3.7
		c-2,1.7-4.1,3.4-6.1,5.1c-0.4,0.3-0.6,0.7-0.8,1C330.4,331.3,342.3,313.6,358.6,300.4z M313.3,568.9
		c-15.6-44.1-22.7-94.5-13.2-139.8c-1.1,38,4.4,77.1,10.5,113.3c1.2,8.7,2.6,17.4,4.4,26.1c0.1,0.3,0.1,0.6,0.2,0.9
		c0.6,3.1,1.2,6.3,1.8,9.6C315.7,575.6,314.5,572.3,313.3,568.9z M310.8,427.9c-1.1,7.3-1.9,14.6-2.6,22
		c-0.8-17.6-0.5-35.1,1.7-52.5c2.7-6.3,5.7-12.4,9.2-18.2C314.9,397.3,312.6,415.4,310.8,427.9z M438.3,713.3
		c-27.7,6.9-48.8-2.2-65.1-19c13,8.8,28.1,11.6,43.9,14.1c8.3,1.3,16.7,2.5,25.1,3.7C440.9,712.5,439.7,712.9,438.3,713.3z
		 M468.3,701.9c-2.8-0.4-5.6-0.8-8.5-1.2c3.3-0.3,6.6-0.6,9.9-1c1.4-0.2,2.9-0.5,4.3-0.7C472.1,700,470.2,700.9,468.3,701.9z
		 M582,682c-4.4,6.2-10.1,16.8-16.3,22c-14.1,12-43.6,5.4-61.7,2.9l-25.1-3.5c2.2-1.1,4.4-2.3,6.6-3.4c3.1-1.6,6.1-3.1,9.2-4.6
		c24.9-5.2,51.4-13.6,76.7-25.3c6.8-1.2,13.7-2,20.6-2.6C588.8,672.3,585.4,677.2,582,682z M597.2,660.2c-2.4,0.2-4.8,0.4-7.1,0.6
		c3.7-2,7.4-4,11-6.1C599.8,656.5,598.5,658.3,597.2,660.2z M555.3,660.2c-40.8,18.8-87.4,31.7-132.7,27
		c-26.9-2.7-46.9-14.3-62.6-30.7c-4.5-8.3-8.3-17.5-12.1-26.8c-29.7-73.1-35.9-155.3-17.5-232c6-25.3,9.5-40.9,30.6-57.3
		c18.9-14.8,29-12.3,50.6-18.5c46.5-13.3,90.9-25.3,139.7-15.6c9.9,2,19.1,4.7,27.8,7.9c13.6,6.8,27.6,14.6,41.2,23.2
		c38.4,31,56.7,79.8,58.5,136.2c0.8,25.7,0.8,53.1-5.9,78.4c-5.7,7.9-11.5,15.7-16.9,23.4c-10.5,15.1-20.9,30.3-31.3,45.4
		C603.2,637.2,577.9,649.8,555.3,660.2z M685.4,604.6c-5.8,14.7-12.8,30.2-22,43.3c-11.4,16.3-31.5,12.6-49.2,12
		c6.8-9.6,13.5-19.2,20.2-28.8c23.8-20.1,42.2-44.5,50.5-73c4.7-7,9.4-13.9,13.9-20.9c1.6-2.4,3.1-4.9,4.5-7.3
		C700.8,555.4,694.9,580.5,685.4,604.6z M707.6,479.9c-1.9,15.1-7.8,29.2-15.4,42.6c6.6-47.9,1.6-99.9-19.8-142.4
		C697.2,407,712.7,439.9,707.6,479.9z"/>
</g>
</svg>
