<?xml version="1.0" encoding="utf-8"?>
<!-- Generator: Adobe Illustrator 23.0.4, SVG Export Plug-In . SVG Version: 6.00 Build 0)  -->
<svg version="1.1" id="Layer_1" xmlns="http://www.w3.org/2000/svg" xmlns:xlink="http://www.w3.org/1999/xlink" x="0px" y="0px"
	 viewBox="0 0 1000 1000" style="enable-background:new 0 0 1000 1000;" xml:space="preserve">
<style type="text/css">
	.st0{fill:#7D7773;}
</style>
<path class="st0" d="M990.1,223.5c-0.3-1.2-1.4-2.4-2.7-2.7c-2.6-0.5-5.2-0.9-7.8-1.3c0.6-2.3-1.3-4.1-3.4-4.4
	c-1.5-1.5-4.2-2-5.7-0.3c-0.9,1-1.8,2-2.7,3c-17.1-2.3-34.2-3.6-51.4-3.7c11.9-18.7,21.8-38.5,27.8-60.6c0.6-2.1,0.1-4.1-1-5.9
	c1.6-2.4,3.2-4.9,4.8-7.3c-0.4-1.3-0.8-2.6-1.2-3.9c-2.2-4.2-5-7.4-8.1-9.9c-5.6,8.4-11.2,16.8-16.9,25.1c-6.1,3.5-12.1,6.4-18.1,9
	c12.2-10.8,23.7-22.7,34.6-34.4c-4.4-3.4-9.6-5.3-15.4-6.2c-18.2,19-38.8,38.6-60.4,51.5c-37.7,4-75.2-7.4-113.2-26.3
	c-22.1-22.9-41.6-42.9-78.9-49.1c-76.9-12.8-147.5,35.8-171.7,108c-5.3,15.7-8.3,31.9-9.5,48.3c-6.6,29.5-9.3,60.1-9.5,88.5
	c-31.2,16.4-68.9,17.9-105.7,10.6c-4.6-1.5-9.2-3-13.8-4.6C235.7,302,156,184.3,178.5,51.1c1.2-7.1-7.1-13.4-12.8-7.5
	C147.7,62,138.9,82,136.8,107.5c-0.2,2.8,0.9,4.7,2.6,5.9c-5,12.9-8.9,25.9-12,39.2c0.2-34.6,5.3-69.1,23.6-98.5
	c5.2-8.4-8.1-16.1-13.3-7.8c-27.6,44.3-27,97.5-23.9,148c3.6,59.1,15.5,117,34,173.1c-4.5-2.6-8.9-5.1-13.4-7.7
	c-23.4-21.4-32.9-67.7-71.5-70.4c-4.2-0.3-7.6,3.8-7.7,7.7c-0.8,28.1,18.2,54.6,39.3,78.5c8.1,30.4,22,58.8,42.5,83.5
	c25.4,30.7,63,49.4,88.3,79.4c-34.6,10.4-100.2-2-113.6-25c-0.8-1.7-1.6-3.4-2.3-5c-3.5-7.9-16.9-2.3-14,5.9
	c0.9,2.7,2.1,5.1,3.3,7.3c18.9,42.1,42.9,82.1,73.7,116.7c11.5,12.9,24.5,26.4,41,32.8c7.6,2.9,15.8,3.6,24.1,3.4
	c11.7,7.7,23.9,14.7,36.7,20.6c-10.2,5.7-18.9,11.7-22.5,14.3c-28.1,20.4-55.8,43.8-88.8,55.9c-36.7,13.5-72.9,7.1-107.1-7.1
	c-6.1-4.4-12.1-8.9-17.9-13.5c-3.4-2.7-7.5-2-10.3,0.1c-0.7-0.4-1.4-0.7-2.1-1.1c-8.7-4.7-16.5,8.6-7.8,13.3
	c10.1,5.5,20.5,10.5,30.9,14.9c3.9,2.9,7.9,5.7,11.9,8.5c-0.1,0-0.2,0-0.3,0c-4.9,0.9-2.8,8.3,2,7.4c2.7-0.5,5.3-0.8,7.9-0.9
	c19.6,13.1,39.8,25.3,60.6,36.3c15.5,18.1,30.4,37.9,49.6,46.9C119.1,849.9,67,816.2,24,767c-6.5-7.5-17.3,3.4-10.9,10.9
	c37.4,42.8,82.7,76.5,135.6,97.7c67.5,27.2,140,39.1,208,65.9C458.6,981.7,569.6,925,651.3,863c66.3-50.5,121.1-115.8,159.3-189.8
	c6.9-9.8,13.4-20,19-30.8c46.5-88.2,62.2-196.3,79.1-296.3c1.7,1.8,5.6,1.8,6.8-1.4c8.2-20.4,17.3-40.3,27.3-59.8
	c2.8-2.6,5.6-5.3,8.6-7.7c1.8,4.2,5.7,6.7,12.8,6.4C990.7,282.3,995.3,242.3,990.1,223.5z M499.3,346.7c0.2,10.1-2.7,20-13.4,24.8
	c-9.1,4.1-27.4,0.2-42-3.1C463.5,365.2,482.2,358.3,499.3,346.7z M160.4,76.7c-0.6,9.6-0.9,19.2-0.5,28.7c-0.3-1.2-0.7-2.5-1-3.7
	c-0.7-2.5-2.8-4.2-5.2-5C155.1,89.4,157.3,82.8,160.4,76.7z M90.7,341.8c-9.2-12.6-24.4-35.9-8.8-29.3c10,4.2,18.2,18.5,25.5,31.8
	l-7.3-4.2C96.4,338,92.9,339.2,90.7,341.8z M172.6,473.4c-22.2-19.4-39.1-42.6-50.9-68.4c3.9,4.3,7.5,8.4,10.8,12.4
	c18.9,23,37.8,46,56.6,69c0.4,0.5,0.9,1.1,1.3,1.6C184.4,483.3,178.4,478.5,172.6,473.4z M126.9,545.1c11.3,4.3,24.2,6.1,36.9,7.4
	c4.3,0.4,9.1,1,14.1,1.5c-9.7,2.1-19.5,4.6-29.3,7.6c-4.8,1.5-7,6.8-4.6,11.3c8,14.5,17.1,28,27.1,40.6
	C154.1,592.6,139.4,569.3,126.9,545.1z M265.7,673.6c11.4,0.2,22.2,2.3,31.4,10.5c0.2,0.2,0.4,0.2,0.6,0.3c-1.8,0.6-3.7,1.2-5.5,2
	C283,682.6,274.2,678.3,265.7,673.6z M112.8,795.8c-4.3-3.5-8.7-6.6-13.5-9.1c2,0.3,4,0.6,6.1,0.8c21.6,9.3,42.5,20.1,62.5,32.8
	c8.2,5.2,16.1,10.4,24.1,15.6C164.5,824,137.9,810.5,112.8,795.8z M154.1,840.2c-2.6-2.9-5.3-5.9-7.9-9
	c33.8,16.8,69,30.8,105.3,41.6c-6.5-0.3-13-0.5-19.5-0.7C200.8,871,175.6,863.7,154.1,840.2z M556.9,904.7c-0.2,0.6-0.2,1.1-0.1,1.6
	c-59.6,30.5-124.8,46.5-182.4,25.8c-29.3-10.5-56.6-24-86.6-32.8c-28.3-8.3-57.2-14.4-85.6-22.4c13.9,2.6,28.4,2.8,42.5,3.1
	c28.8,0.7,55.6,5.6,83,14.4c46.3,14.8,90.2,30.9,139.6,28.1c27.3-1.5,53.8-7.7,78.8-17.8c1.1,1.2,2.8,2,4.7,1.2
	c2.2-0.9,4.3-1.9,6.5-2.9C557.3,903.6,557.1,904.2,556.9,904.7z M448.9,915.3c-33.4-0.7-64.1-10.5-94.9-20.7
	c68.5,9.3,138.9,7.8,203.1-16c3.9,0,7.8,0,11.7-0.1c-2,3.2-3.8,6.5-5.4,9.9C528,906.5,488.9,916.1,448.9,915.3z M349.7,881.1
	c27.5-0.1,55.2-1.5,82.2-1.7c21.2-0.1,42.4-0.3,63.6-0.4C448.3,888.2,398.9,888.1,349.7,881.1z M566.2,901.4c0.3-0.9,0.7-1.8,1-2.7
	c12.2-5.8,24-12.2,35.5-19.2C590.9,887.2,578.7,894.6,566.2,901.4z M598,873.3c-0.4-1.4-1.6-2.6-3.5-2.6c-3.6,0-7.3,0-10.9,0.1
	c1.8-2.2,3.6-4.3,5.5-6.4c6.4-3.3,12.8-6.7,19.1-10.6c22.6-13.9,44.1-29.9,64.9-46.7c7-4.2,14-8.6,20.6-13.2
	C665.9,825.1,633.7,851.8,598,873.3z M692.7,807c-2.4,2.3-4.9,4.7-7.4,7.1c16.8-17.1,32.2-35.7,46.1-55.7c0.4-0.6,0.6-1.1,0.6-1.7
	c0.1-0.1,0.1-0.1,0.2-0.2c6.6-5.8,13.1-11.8,19.6-17.8C734,763,714.3,785.9,692.7,807z M871.4,459.7c1.4-8.7,2.8-17.3,4.4-26
	c2.3-13.2,5.1-26.5,8.4-39.6C880.2,416,876,437.9,871.4,459.7z M907.5,289.2c-2.5,0.3-4.8,2-5.4,5.4c-0.1,0.7-0.2,1.4-0.4,2
	c-6.3,7.6-13.2,14.7-20.9,21.3c-7.5,6.5,3.4,17.3,10.9,10.9c0,0,0.1-0.1,0.1-0.1c-29.2,60.3-33.5,136-46.8,201.1
	c-9.4,45.9-25,90.3-46,131.9C754.2,728,685.4,782,622.3,826.1c-29.4,20.6-61.1,35.3-94.3,45c-29.5,0.2-59,0.4-88.5,0.6
	c-45.6,0.3-94.1,4.8-140-0.2c-22.5-5.3-44.9-12-66.8-19.8c-25.1-13.2-48-30.8-72.6-45.4c-11.2-6.6-22.7-12.6-34.3-18.2
	c13.6-0.5,27.4-2.9,41.2-7.9c21.7-7.8,41.3-20.5,60-33.7c12.5-8.8,24.6-18.2,37.1-27.1c0.9-0.6,16.4-10.4,28.8-16.3
	c6.7,2.6,13.5,5,20.4,7.1c3.7,1.1,8.7-1.4,9.5-5.4c3.2-17.7-3.3-23.3-13.6-22.8c1.7-2.7,1.9-6.1-1.2-8.9
	c-9.5-8.4-17.6-12.8-30.4-14.4c-14.2-1.8-26.8-1.1-38.7-1.8c-30.7-21.7-56.6-49.7-76.5-83.1c27.3-7.7,54.6-11.9,83.2-12.4
	c5.9-0.1,9.4-6.4,6.6-11.6c-1.1-2-2.4-3.8-3.6-5.7c3.6-2.9,6.8-6.4,9.3-10.8c4.1-7.4-5-14.1-10.8-10.4c-0.8-1.8-2.3-3.4-4.7-4.2
	c-19.9-6.2-34.5-33.7-47-49c-12.6-15.3-25.2-30.7-37.8-46c-14.2-17.2-28.3-34.5-42.5-51.7c-2.6-3.2-5.2-6.4-7.9-9.6
	c-0.1-0.2-0.1-0.4-0.2-0.7l23.7,13.6c4,3.2,8.3,5.7,13,7.5l25.4,14.6c4.6,2.6,12.3-0.6,11.6-6.6c-4.9-41-26.3-75.7-36.9-115.1
	c-13.3-49.3-10.2-100.1,6.3-147.7c22.4,80.2,53,161.3,130,203.7c28,15.5,60.8,28.6,94.3,34.9c67.9,24.2,145.9,39.1,144.4-12.9
	c-0.8-28.1-14.9-54.3-15.1-83.5c-0.1-8.6,0.5-17.3,1.6-25.9c7-27.5,18.6-53.4,37.6-75.4c45.4-52.6,105-57.6,165-28.3
	c13.2,6.4,26,13.6,38.8,20.3c20.6,23.1,40.3,45.1,77.6,41c15.1-1.7,29.3-6.9,42.8-14.5c12.8-2,25.3-5.5,37.3-10.4
	c-17.5,25.1-35.4,49.8-53.8,74.2c-0.5-0.1-0.9-0.2-1.4-0.2c-7.9-1.2-11.9,8.3-8,12.7c-2,2.6-3.9,5.2-5.8,7.7
	c-6,7.8,7.3,15.5,13.3,7.8c2.9-3.8,5.7-7.6,8.6-11.4c19.3,3.1,38.6,6.7,57.7,10.8C912.5,282.3,910,285.8,907.5,289.2z M870.7,254.7
	c-1.1-0.2-2.2-0.4-3.3-0.5c7.9-10.6,15.7-21.2,23.5-31.9c0.5,0,1-0.1,1.5-0.1c-6.3,8.9-12.9,17.6-19.8,26.3
	C871.2,250.3,870.6,252.5,870.7,254.7z M909.9,338c0.9-5.1,1.8-10.3,2.6-15.4c3.5-5.9,7.4-11.4,11.4-16.9
	C919.1,316.4,914.4,327.2,909.9,338z M946.7,260.9c-4.4,3.2-8.5,6.7-12.4,10.2c-0.7-2.4-2.5-4.5-5.2-5.1c-2.8-0.6-5.6-1.2-8.4-1.7
	c2-1.1,4-2.2,6-3.3c6.7-0.1,13.4-0.2,20.2-0.3C946.8,260.8,946.8,260.9,946.7,260.9z M958,240.9c-0.8,1.4-1.8,2.8-2.6,4.3
	c-1.9,0-3.9,0.1-5.8,0.1c3.5-2.8,6.9-5.6,10.3-8.7C959.2,238,958.6,239.5,958,240.9z M936.5,245.5l-42.7,0.6
	c6.1-8,12-16.2,17.6-24.4c4.8,0,9.6-0.2,14.5,0c7.7,0.2,24.4-0.5,37.4,1.1C954.9,231.1,946,238.7,936.5,245.5z M983.7,251.3
	c-1.3,5.2-3.5,10.1-6.5,14.5c-2.9-0.3-5.8-0.6-8.8-0.8c3.3-2,6.7-3.9,10.2-5.7c6.9-3.5,3.5-14.4-3.9-14.3c-3.5,0-6.9,0.1-10.4,0.1
	c3.8-6.5,7.7-13,11.7-19.4c0.8,0.4,1.5,0.8,2.2,1.2C986.7,232.9,986.3,241,983.7,251.3z"/>
</svg>
